<svg width="644" height="401" viewBox="0 0 644 401" fill="none" xmlns="http://www.w3.org/2000/svg">
<path d="M70.866 124.358H570.235V122.39H70.866V124.358ZM570.235 122.39H70.866V124.358H570.235V122.39ZM563.714 398.62H77.388V400.588H563.714V398.62ZM77.388 398.62C74.3293 398.62 71.85 396.14 71.85 393.083H69.882C69.882 397.227 73.2426 400.588 77.388 400.588V398.62ZM71.85 393.083V97.1599H69.882V393.083H71.85ZM71.85 97.1599C71.85 94.1025 74.3293 91.6229 77.388 91.6229V89.6549C73.2426 89.6549 69.882 93.0154 69.882 97.1599H71.85ZM77.388 91.6229H563.714V89.6549H77.388V91.6229ZM563.714 91.6229C566.772 91.6229 569.251 94.1024 569.251 97.1599H571.219C571.219 93.0155 567.858 89.6549 563.714 89.6549V91.6229ZM569.251 97.1599V393.083H571.219V97.1599H569.251ZM569.251 393.083C569.251 396.14 566.772 398.62 563.714 398.62V400.588C567.858 400.588 571.219 397.227 571.219 393.083H569.251Z" fill="#CFC7BF"/>
<path fill-rule="evenodd" clip-rule="evenodd" d="M103.777 107.341C103.777 109.863 101.731 111.908 99.209 111.908C96.686 111.908 94.641 109.863 94.641 107.341C94.641 104.818 96.686 102.773 99.209 102.773C101.731 102.773 103.777 104.818 103.777 107.341Z" fill="#ED9F94"/>
<path fill-rule="evenodd" clip-rule="evenodd" d="M121.529 107.341C121.529 109.863 119.484 111.908 116.961 111.908C114.438 111.908 112.394 109.863 112.394 107.341C112.394 104.818 114.438 102.773 116.961 102.773C119.484 102.773 121.529 104.818 121.529 107.341Z" fill="#D2BD59"/>
<path fill-rule="evenodd" clip-rule="evenodd" d="M139.282 107.341C139.282 109.863 137.236 111.908 134.714 111.908C132.191 111.908 130.146 109.863 130.146 107.341C130.146 104.818 132.191 102.773 134.714 102.773C137.236 102.773 139.282 104.818 139.282 107.341Z" fill="#1A7B6E"/>
<path fill-rule="evenodd" clip-rule="evenodd" d="M635.107 233.632H517.746C514.437 233.632 511.755 230.95 511.755 227.641V119.1C511.755 115.791 514.437 113.109 517.746 113.109H635.107C638.416 113.109 641.099 115.791 641.099 119.1V227.641C641.099 230.95 638.416 233.632 635.107 233.632Z" fill="#E3E1DC"/>
<path fill-rule="evenodd" clip-rule="evenodd" d="M635.107 233.632H517.746C514.437 233.632 511.755 230.95 511.755 227.641V119.1C511.755 115.791 514.437 113.109 517.746 113.109H635.107C638.416 113.109 641.099 115.791 641.099 119.1V227.641C641.099 230.95 638.416 233.632 635.107 233.632Z" stroke="#CFC7BF" stroke-width="1.968"/>
<path fill-rule="evenodd" clip-rule="evenodd" d="M546.119 202.28H607.117C610.443 202.28 613.14 199.584 613.14 196.258V146.267C613.14 142.942 610.443 140.246 607.117 140.246H546.119C542.794 140.246 540.098 142.942 540.098 146.267V196.258C540.098 199.584 542.794 202.28 546.119 202.28Z" fill="#FF9048"/>
<path d="M559.573 181.577H558.749C558.749 182.032 559.118 182.4 559.573 182.4V181.577ZM593.28 181.577V182.4C593.735 182.4 594.104 182.032 594.104 181.577H593.28ZM593.28 158.972H594.104C594.104 158.517 593.735 158.148 593.28 158.148V158.972ZM559.573 158.972V158.148C559.118 158.148 558.749 158.517 558.749 158.972H559.573ZM559.573 158.972V158.148C559.222 158.148 558.91 158.371 558.795 158.702C558.68 159.034 558.788 159.402 559.063 159.619L559.573 158.972ZM576.427 172.254L575.917 172.901C576.216 173.136 576.638 173.136 576.937 172.901L576.427 172.254ZM593.28 158.972L593.79 159.619C594.065 159.402 594.173 159.034 594.058 158.702C593.943 158.371 593.631 158.148 593.28 158.148V158.972ZM559.573 182.4H593.28V180.753H559.573V182.4ZM594.104 181.577V158.972H592.456V181.577H594.104ZM593.28 158.148H559.573V159.795H593.28V158.148ZM558.749 158.972V181.577H560.396V158.972H558.749ZM559.063 159.619L575.917 172.901L576.937 171.607L560.083 158.325L559.063 159.619ZM576.937 172.901L593.79 159.619L592.77 158.325L575.917 171.607L576.937 172.901ZM593.28 158.148H559.573V159.795H593.28V158.148Z" fill="#FFFFFE"/>
<path fill-rule="evenodd" clip-rule="evenodd" d="M118.639 324.521H6.713C3.558 324.521 1 321.963 1 318.807V221.223C1 218.068 3.558 215.51 6.713 215.51H118.639C121.794 215.51 124.353 218.068 124.353 221.223V318.807C124.353 321.963 121.794 324.521 118.639 324.521Z" fill="#E3E1DC"/>
<path fill-rule="evenodd" clip-rule="evenodd" d="M118.639 324.521H6.713C3.558 324.521 1 321.963 1 318.807V221.223C1 218.068 3.558 215.51 6.713 215.51H118.639C121.794 215.51 124.353 218.068 124.353 221.223V318.807C124.353 321.963 121.794 324.521 118.639 324.521Z" stroke="#CFC7BF" stroke-width="1.968"/>
<path fill-rule="evenodd" clip-rule="evenodd" d="M91.41 303.519H33.361C29.694 303.519 26.722 300.547 26.722 296.88V240.819C26.722 237.152 29.694 234.18 33.361 234.18H91.41C95.077 234.18 98.05 237.152 98.05 240.819V296.88C98.05 300.547 95.077 303.519 91.41 303.519Z" fill="#FF9048"/>
<path fill-rule="evenodd" clip-rule="evenodd" d="M80.976 268.318H72.307C72.26 265.712 71.921 263.105 71.276 260.5H78.637C79.966 262.832 80.794 265.487 80.976 268.318ZM78.637 278.495H71.043C71.729 275.888 72.144 273.283 72.271 270.676H80.976C80.794 273.508 79.967 276.163 78.637 278.495ZM67.861 286.983C68.85 284.94 69.681 282.897 70.347 280.853H77.035C74.714 283.754 71.525 285.928 67.861 286.983ZM62.821 287.691C62.013 287.691 61.217 287.638 60.438 287.536C59.326 285.308 58.379 283.081 57.617 280.853H68.024C67.262 283.081 66.315 285.308 65.205 287.536C64.424 287.638 63.629 287.691 62.821 287.691ZM48.607 280.853H55.295C55.961 282.896 56.792 284.94 57.78 286.983C54.117 285.928 50.927 283.754 48.607 280.853ZM47.005 278.495C45.675 276.163 44.847 273.508 44.666 270.676H53.371C53.498 273.282 53.912 275.888 54.599 278.495H47.005ZM47.005 260.5H54.366C53.721 263.105 53.382 265.712 53.335 268.318H44.666C44.847 265.487 45.675 262.832 47.005 260.5ZM57.533 252.085C56.509 254.103 55.679 256.123 55.034 258.141H48.607C50.875 255.306 53.973 253.165 57.533 252.085ZM62.821 251.303C63.791 251.303 64.742 251.38 65.67 251.525C66.906 253.731 67.874 255.936 68.594 258.141H57.048C57.768 255.936 58.736 253.731 59.972 251.525C60.9 251.38 61.852 251.303 62.821 251.303ZM70.147 270.676C69.969 273.282 69.497 275.888 68.761 278.495H56.88C56.145 275.889 55.673 273.283 55.495 270.676H70.147ZM55.416 268.318C55.419 265.712 55.726 263.105 56.371 260.5H69.271C69.916 263.105 70.223 265.712 70.226 268.318H55.416ZM77.035 258.141H70.608C69.963 256.123 69.133 254.103 68.109 252.085C71.669 253.165 74.767 255.306 77.035 258.141ZM48.561 255.237C40.729 263.069 40.729 275.925 48.561 283.758C56.393 291.59 69.249 291.59 77.081 283.758C84.913 275.925 84.913 263.069 77.081 255.237C69.249 247.405 56.393 247.405 48.561 255.237Z" fill="#FFFFFE"/>
<path fill-rule="evenodd" clip-rule="evenodd" d="M111.968 62.128H10.57C8.47501 62.128 6.77701 60.43 6.77701 58.335C6.77701 56.24 8.47501 54.542 10.57 54.542H111.968C114.063 54.542 115.761 56.24 115.761 58.335C115.761 60.43 114.063 62.128 111.968 62.128Z" fill="#FF9048"/>
<path fill-rule="evenodd" clip-rule="evenodd" d="M639.239 309.812H590.024C587.93 309.812 586.231 308.114 586.231 306.019C586.231 303.925 587.93 302.226 590.024 302.226H639.239C641.334 302.226 643.032 303.925 643.032 306.019C643.032 308.114 641.334 309.812 639.239 309.812Z" fill="#54BCC2"/>
<path fill-rule="evenodd" clip-rule="evenodd" d="M604.77 353.689H598.757C597.177 353.689 595.895 352.408 595.895 350.828V345.182C595.895 343.602 597.177 342.322 598.757 342.322H604.77C606.351 342.322 607.632 343.602 607.632 345.182V350.828C607.632 352.408 606.351 353.689 604.77 353.689Z" fill="#A46EA1"/>
<path fill-rule="evenodd" clip-rule="evenodd" d="M34.723 379.967H28.709C27.129 379.967 25.848 378.686 25.848 377.106V371.461C25.848 369.881 27.129 368.599 28.709 368.599H34.723C36.303 368.599 37.584 369.881 37.584 371.461V377.106C37.584 378.686 36.303 379.967 34.723 379.967Z" fill="#ED9F94"/>
<path fill-rule="evenodd" clip-rule="evenodd" d="M394.915 58.21C393.251 58.21 391.902 56.861 391.902 55.198V30.762C391.902 29.099 393.251 27.751 394.915 27.751H494.998C496.662 27.751 498.01 29.099 498.01 30.762V55.198C498.01 56.861 496.662 58.21 494.998 58.21H394.915Z" fill="#FF9048"/>
<path d="M406.355 39.194H477.533V38.014H406.355V39.194ZM406.355 46.499H435.348V45.319H406.355V46.499Z" fill="#FFFFFE"/>
<path fill-rule="evenodd" clip-rule="evenodd" d="M403.46 54.764V66.635L418.39 54.764H403.46Z" fill="#ED9F94"/>
<path fill-rule="evenodd" clip-rule="evenodd" d="M249.105 60.022H200.657C195.951 60.022 192.137 56.207 192.137 51.502V6.46C192.137 2.892 195.029 0 198.596 0H249.105C252.672 0 255.564 2.892 255.564 6.46V53.562C255.564 57.13 252.672 60.022 249.105 60.022Z" fill="#FF9048"/>
<path fill-rule="evenodd" clip-rule="evenodd" d="M237.169 37.803C236.911 38.061 236.653 38.319 236.395 38.577C235.943 38.964 235.557 39.416 235.105 39.867C234.46 40.512 233.75 40.835 232.783 40.835C232.654 40.835 232.59 40.835 232.461 40.835C230.526 40.706 228.72 39.932 227.43 39.287C223.754 37.481 220.529 34.965 217.821 31.741C215.628 29.096 214.145 26.581 213.112 23.937C212.468 22.389 212.209 21.164 212.339 19.938C212.403 19.229 212.661 18.584 213.242 18.068L215.435 15.875C215.628 15.682 215.95 15.424 216.337 15.424C216.724 15.424 216.982 15.617 217.24 15.875C217.627 16.262 218.014 16.649 218.401 17.036C218.595 17.23 218.788 17.488 219.046 17.681L220.852 19.487C221.045 19.68 221.303 20.068 221.303 20.39C221.303 20.777 221.045 21.099 220.852 21.293C220.658 21.486 220.465 21.68 220.271 21.873C219.691 22.454 219.175 22.969 218.659 23.485C218.659 23.485 218.659 23.485 218.595 23.55C217.95 24.195 218.079 24.776 218.208 25.162V25.227C218.659 26.388 219.369 27.42 220.336 28.71C222.142 30.967 224.077 32.708 226.205 34.063C226.463 34.256 226.785 34.385 227.043 34.514C227.301 34.643 227.495 34.708 227.688 34.837L227.753 34.901C228.397 35.223 229.042 35.094 229.559 34.579L231.816 32.321C232.009 32.128 232.332 31.87 232.719 31.87C233.042 31.87 233.364 32.128 233.557 32.321L237.169 35.933C237.75 36.513 237.75 37.158 237.169 37.803ZM238.652 34.449L235.041 30.838C234.396 30.129 233.557 29.741 232.719 29.741C231.88 29.741 231.042 30.129 230.397 30.774L228.333 32.837C228.204 32.773 228.075 32.708 227.946 32.644C227.688 32.515 227.495 32.45 227.301 32.321C225.366 31.096 223.625 29.484 221.948 27.42C221.174 26.452 220.594 25.55 220.271 24.776C220.788 24.324 221.239 23.808 221.69 23.357C221.884 23.163 222.077 22.969 222.271 22.776C222.98 22.067 223.367 21.228 223.367 20.39C223.367 19.551 222.98 18.713 222.271 18.004L220.465 16.198C220.271 16.004 220.078 15.811 219.884 15.553C219.498 15.166 219.046 14.715 218.659 14.327C218.014 13.682 217.176 13.296 216.337 13.296C215.499 13.296 214.725 13.618 214.016 14.327L211.758 16.585C210.92 17.423 210.404 18.52 210.275 19.745C210.146 21.68 210.662 23.485 211.113 24.647C212.145 27.613 213.757 30.257 216.144 33.095C219.046 36.513 222.464 39.222 226.463 41.157C227.946 41.866 230.01 42.705 232.268 42.898C232.396 42.898 232.525 42.898 232.719 42.898C234.267 42.898 235.557 42.318 236.588 41.221C236.588 41.221 236.588 41.221 236.653 41.157C236.976 40.77 237.362 40.383 237.814 39.996C238.072 39.738 238.395 39.416 238.652 39.158C240.007 37.739 240.007 35.804 238.652 34.449Z" fill="#FFFFFE"/>
<mask id="mask0_1_17" style="mask-type:luminance" maskUnits="userSpaceOnUse" x="382" y="282" width="88" height="117">
<path fill-rule="evenodd" clip-rule="evenodd" d="M382.735 282.418H469.394V398.797H382.735V282.418Z" fill="white"/>
</mask>
<g mask="url(#mask0_1_17)">
<path fill-rule="evenodd" clip-rule="evenodd" d="M459.853 287.278L423.351 282.418L423.636 286.043L392.427 290.198C392.427 290.198 372.311 340.668 390.04 451.663H415.427L424.563 339.114H427.809L436.658 451.663H462.045C479.774 340.668 459.853 287.278 459.853 287.278Z" fill="#7E6663"/>
</g>
<path d="M412.957 339.114H439.443" stroke="#232325" stroke-width="1.233" stroke-linecap="round" stroke-linejoin="round"/>
<path fill-rule="evenodd" clip-rule="evenodd" d="M481.169 234.037C478.046 229.052 460.504 229.228 459.578 229.12C454.836 228.564 462.619 266.3 472.484 299.287C474.376 305.611 481.334 308.905 487.411 306.328C487.477 306.3 487.542 306.272 487.608 306.245C492.416 304.208 495.151 299.104 494.184 293.973C489.492 269.083 484.78 239.8 481.169 234.037Z" fill="#ED9F94"/>
<path fill-rule="evenodd" clip-rule="evenodd" d="M485.35 247.682L462.953 256.373L460.853 245.747L484.045 239.962L485.35 247.682Z" fill="#E0857D"/>
<path fill-rule="evenodd" clip-rule="evenodd" d="M489.58 268.941C489.58 268.941 478.97 283.19 479.476 282.535C479.981 281.88 487.796 259.508 487.796 259.508L489.58 268.941Z" fill="#E0857D"/>
<path fill-rule="evenodd" clip-rule="evenodd" d="M504.75 249.789L474.338 289.192C470.345 294.365 471.62 301.845 477.102 305.404C482.574 308.956 489.913 307.089 493.021 301.353L518.336 254.648L504.75 249.789Z" fill="#ED9F94"/>
<path fill-rule="evenodd" clip-rule="evenodd" d="M512.621 259.907C506.028 257.777 502.41 250.707 504.54 244.113C506.67 237.52 513.741 233.903 520.334 236.032C526.927 238.162 530.545 245.233 528.415 251.826C526.285 258.42 519.214 262.037 512.621 259.907Z" fill="#ED9F94"/>
<path fill-rule="evenodd" clip-rule="evenodd" d="M525.625 240.428C525.625 240.428 529.058 236.864 522.967 234.366C516.877 231.868 509.347 232.441 504.54 244.113L525.625 240.428Z" fill="#ED9F94"/>
<path fill-rule="evenodd" clip-rule="evenodd" d="M531.934 215.527L544.668 221.048C545.376 221.355 545.634 222.195 545.243 222.924L528.492 254.215C528.102 254.943 527.211 255.286 526.503 254.978L513.769 249.458C513.06 249.15 512.803 248.31 513.192 247.582L529.944 216.291C530.335 215.562 531.226 215.22 531.934 215.527Z" fill="#383051"/>
<path fill-rule="evenodd" clip-rule="evenodd" d="M530.718 214.973L543.451 220.494C544.16 220.801 544.418 221.641 544.027 222.37L527.275 253.66C526.886 254.389 525.995 254.731 525.286 254.424L512.553 248.903C511.844 248.596 511.586 247.757 511.977 247.027L528.728 215.737C529.118 215.008 530.009 214.666 530.718 214.973Z" fill="#261E35"/>
<path fill-rule="evenodd" clip-rule="evenodd" d="M529.281 218.157L540.47 223.007L526.817 248.509L515.629 243.659L529.281 218.157Z" fill="#D9D8D2"/>
<path fill-rule="evenodd" clip-rule="evenodd" d="M540.47 223.007L515.629 243.659L529.281 218.157L540.47 223.007Z" fill="#FFFFFE"/>
<path fill-rule="evenodd" clip-rule="evenodd" d="M519.311 233.327C519.311 233.327 522.146 233.88 524.705 235.33C525.833 235.968 526.41 237.269 526.098 238.527C525.812 239.674 524.852 240.526 523.68 240.674L517.06 241.509C517.06 241.509 513.605 247.463 509.093 248.131L513.232 237.678L519.311 233.327Z" fill="#ED9F94"/>
<path fill-rule="evenodd" clip-rule="evenodd" d="M434.767 184.417C434.036 184.412 481.713 191.014 489.58 245.372L464.84 249.162L459.853 290.198H390.836L377.134 214.379C377.134 214.379 392.425 192.465 420.815 184.417H434.767Z" fill="url(#paint0_linear_1_17)"/>
<path d="M464.84 249.162L466.987 225.428" stroke="#232325" stroke-width="1.233" stroke-linecap="round" stroke-linejoin="round"/>
<path fill-rule="evenodd" clip-rule="evenodd" d="M439.298 185.194V166.313H417.172V185.416C416.04 185.754 414.154 186.436 411.228 187.826L428.484 198.106L446.127 187.826C446.127 187.826 443.326 186.197 439.298 185.194Z" fill="#ED9F94"/>
<path fill-rule="evenodd" clip-rule="evenodd" d="M416.967 168.619C416.967 168.619 420.94 179.171 431.548 178.26C441.298 177.423 439.746 162.8 439.746 162.8L416.967 168.619Z" fill="#232325"/>
<path fill-rule="evenodd" clip-rule="evenodd" d="M407.317 154.587C403.849 157.733 396.094 145.801 399.445 142.451C402.796 139.102 405.353 144.357 405.353 144.357L406.849 147.919L407.977 152.742L408.245 154.006L407.317 154.587Z" fill="#E0857D"/>
<path d="M401.064 146.678C401.064 146.678 403.689 145.497 406.021 149.302" stroke="#232325" stroke-width="0.993" stroke-linecap="round" stroke-linejoin="round"/>
<path fill-rule="evenodd" clip-rule="evenodd" d="M448.33 154.225C451.52 157.653 460.256 146.42 457.2 142.799C454.145 139.177 451.153 144.198 451.153 144.198L449.361 147.62L447.828 152.331L447.454 153.567L448.33 154.225Z" fill="#E0857D"/>
<path d="M455.229 146.873C455.229 146.873 452.714 145.474 450.067 149.069" stroke="#232325" stroke-width="0.993" stroke-linecap="round" stroke-linejoin="round"/>
<path fill-rule="evenodd" clip-rule="evenodd" d="M401.234 131.07C401.234 146.864 413.276 154.353 428.131 154.353C442.985 154.353 455.026 146.864 455.026 131.07C455.026 115.275 442.985 104.53 428.131 104.53C413.276 104.53 401.234 115.275 401.234 131.07Z" fill="#232325"/>
<path fill-rule="evenodd" clip-rule="evenodd" d="M404.89 132.168C404.89 141.864 406.26 150.231 407.627 156.17C408.966 161.984 412.733 166.047 418.058 169.317L419.027 169.913C424.661 173.373 431.939 173.454 437.659 170.119C443.428 166.756 447.467 162.322 448.71 156.083C450.971 144.736 451.218 132.168 451.218 132.168C451.218 132.168 453.369 107.692 428.385 108.167C403.399 108.643 404.89 132.168 404.89 132.168Z" fill="#ED9F94"/>
<path d="M426.538 146.137V149.524C426.538 149.724 426.576 149.917 426.647 150.093C426.925 150.785 427.724 151.117 428.446 150.925L429.999 150.513" stroke="#232325" stroke-width="1.232" stroke-linecap="round" stroke-linejoin="round"/>
<path fill-rule="evenodd" clip-rule="evenodd" d="M422.565 133.003L410.148 135.913C410.148 135.913 410.713 132.753 415.792 131.604C420.872 130.456 422.565 133.003 422.565 133.003Z" fill="#232325"/>
<path fill-rule="evenodd" clip-rule="evenodd" d="M433.586 133.003L445.575 135.913C445.575 135.913 445.03 132.753 440.125 131.604C435.221 130.456 433.586 133.003 433.586 133.003Z" fill="#232325"/>
<path fill-rule="evenodd" clip-rule="evenodd" d="M419.941 142.124C419.941 143.277 419.004 144.212 417.848 144.212C416.691 144.212 415.754 143.277 415.754 142.124C415.754 140.97 416.691 140.035 417.848 140.035C419.004 140.035 419.941 140.97 419.941 142.124Z" fill="#232325"/>
<path fill-rule="evenodd" clip-rule="evenodd" d="M439.794 142.124C439.794 143.277 438.856 144.212 437.7 144.212C436.543 144.212 435.605 143.277 435.605 142.124C435.605 140.97 436.543 140.035 437.7 140.035C438.856 140.035 439.794 140.97 439.794 142.124Z" fill="#232325"/>
<path fill-rule="evenodd" clip-rule="evenodd" d="M419.941 154.867H436.09C436.09 154.867 428.933 163.574 419.941 154.867Z" fill="#FFFFFE"/>
<path d="M425.871 142.935L425.413 142.445L424.169 143.606H425.871V142.935ZM429.937 142.935V143.606H431.55L430.413 142.462L429.937 142.935ZM425.2 142.935C425.2 147.483 421.514 151.169 416.967 151.169V152.511C422.256 152.511 426.542 148.224 426.542 142.935H425.2ZM416.967 151.169C412.42 151.169 408.733 147.482 408.733 142.935H407.391C407.391 148.224 411.678 152.511 416.967 152.511V151.169ZM408.733 142.935C408.733 138.388 412.42 134.701 416.967 134.701V133.359C411.678 133.359 407.391 137.646 407.391 142.935H408.733ZM416.967 134.701C421.514 134.701 425.2 138.388 425.2 142.935H426.542C426.542 137.647 422.256 133.359 416.967 133.359V134.701ZM447.076 142.935C447.076 147.483 443.39 151.169 438.843 151.169V152.511C444.132 152.511 448.418 148.224 448.418 142.935H447.076ZM438.843 151.169C434.295 151.169 430.608 147.482 430.608 142.935H429.266C429.266 148.224 433.555 152.511 438.843 152.511V151.169ZM430.608 142.935C430.608 138.388 434.295 134.701 438.843 134.701V133.359C433.555 133.359 429.266 137.646 429.266 142.935H430.608ZM438.843 134.701C443.39 134.701 447.076 138.388 447.076 142.935H448.418C448.418 137.647 444.132 133.359 438.843 133.359V134.701ZM425.871 142.935C426.329 143.425 426.329 143.426 426.328 143.426C426.328 143.426 426.328 143.426 426.328 143.426C426.328 143.426 426.328 143.427 426.327 143.427C426.327 143.427 426.327 143.427 426.327 143.428C426.326 143.428 426.327 143.428 426.327 143.427C426.329 143.426 426.332 143.423 426.337 143.418C426.347 143.409 426.365 143.394 426.389 143.375C426.437 143.336 426.511 143.279 426.606 143.215C426.799 143.085 427.066 142.934 427.374 142.836C427.68 142.738 428.011 142.697 428.348 142.763C428.678 142.827 429.058 143.003 429.461 143.408L430.413 142.462C429.837 141.883 429.22 141.566 428.605 141.446C427.996 141.327 427.432 141.409 426.966 141.557C426.502 141.705 426.12 141.924 425.856 142.102C425.723 142.191 425.617 142.273 425.542 142.334C425.505 142.364 425.475 142.39 425.453 142.409C425.442 142.418 425.434 142.426 425.427 142.432C425.423 142.435 425.421 142.438 425.418 142.44C425.417 142.441 425.416 142.442 425.415 142.442C425.415 142.443 425.414 142.443 425.414 142.444C425.414 142.444 425.414 142.444 425.414 142.444C425.413 142.444 425.413 142.445 425.871 142.935ZM429.937 142.264H425.871V143.606H429.937V142.264ZM408.079 142.264L405.274 142.193L405.24 143.535L408.045 143.606L408.079 142.264ZM405.24 143.535L408.045 143.606L408.079 142.264L405.274 142.193L405.24 143.535ZM447.764 143.606L450.586 143.535L450.552 142.193L447.73 142.264L447.764 143.606ZM450.552 142.193L447.73 142.264L447.764 143.606L450.586 143.535L450.552 142.193Z" fill="#A46EA1"/>
<path fill-rule="evenodd" clip-rule="evenodd" d="M450.896 140.283C450.896 140.283 440.907 126.779 443.212 113.098C443.212 113.098 450.626 116.829 452.557 126.459C454.488 136.09 450.896 140.283 450.896 140.283Z" fill="#232325"/>
<path fill-rule="evenodd" clip-rule="evenodd" d="M404.873 141.198C404.873 141.198 416.478 125.86 414.173 112.179C414.173 112.179 406.124 116.829 404.193 126.459C402.263 136.09 404.873 141.198 404.873 141.198Z" fill="#232325"/>
<path fill-rule="evenodd" clip-rule="evenodd" d="M450.059 118.486C450.059 118.486 437.232 132.528 402.139 130.124C402.139 130.124 407.513 109.519 424.52 107.324C424.52 107.324 444.157 104.979 450.059 118.486Z" fill="#232325"/>
<mask id="mask1_1_17" style="mask-type:luminance" maskUnits="userSpaceOnUse" x="167" y="85" width="299" height="314">
<path fill-rule="evenodd" clip-rule="evenodd" d="M167.648 85.3149H465.914V398.797H167.648V85.3149Z" fill="white"/>
</mask>
<g mask="url(#mask1_1_17)">
<path fill-rule="evenodd" clip-rule="evenodd" d="M465.914 102.07C465.914 111.324 458.412 118.826 449.158 118.826C439.904 118.826 432.402 111.324 432.402 102.07C432.402 92.8169 439.904 85.3149 449.158 85.3149C458.412 85.3149 465.914 92.8169 465.914 102.07Z" fill="#232325"/>
<path fill-rule="evenodd" clip-rule="evenodd" d="M244.614 287.24L213.406 283.084L213.691 279.46L177.189 284.32C177.189 284.32 157.268 337.709 174.997 448.705H200.384L209.233 336.156H212.478L221.615 448.705H247.001C264.731 337.709 244.614 287.24 244.614 287.24Z" fill="#232325"/>
</g>
<path fill-rule="evenodd" clip-rule="evenodd" d="M242.125 135.396C237.901 130.426 234.519 124.63 231.645 116.495C228.559 107.762 218.456 111.312 218.456 111.312C218.456 111.312 210.037 100.481 197.368 104.254C184.699 108.026 180.297 117.041 180.039 127.759C179.78 138.478 171.35 140.154 164.858 152.553C153.397 174.443 172.693 192.881 207.817 187.766L207.864 187.425C211.323 188.475 215.562 188.934 220.737 188.627C262.933 186.121 258.861 155.085 242.125 135.396Z" fill="#232325"/>
<path fill-rule="evenodd" clip-rule="evenodd" d="M228.311 151.629C231.779 154.774 239.533 142.843 236.182 139.493C232.832 136.143 230.275 141.399 230.275 141.399L228.779 144.96L227.65 149.784L227.382 151.047L228.311 151.629Z" fill="#E0857D"/>
<path d="M234.563 143.719C234.563 143.719 231.938 142.539 229.605 146.344" stroke="#232325" stroke-width="0.993" stroke-linecap="round" stroke-linejoin="round"/>
<path fill-rule="evenodd" clip-rule="evenodd" d="M187.297 151.267C184.107 154.695 175.371 143.462 178.427 139.841C181.483 136.219 184.474 141.239 184.474 141.239L186.266 144.662L187.799 149.373L188.173 150.609L187.297 151.267Z" fill="#E0857D"/>
<path d="M180.398 143.915C180.398 143.915 182.914 142.516 185.56 146.111" stroke="#232325" stroke-width="0.993" stroke-linecap="round" stroke-linejoin="round"/>
<path fill-rule="evenodd" clip-rule="evenodd" d="M234.393 128.111C234.393 143.905 222.351 151.395 207.497 151.395C192.643 151.395 180.601 143.905 180.601 128.111C180.601 112.317 192.643 101.572 207.497 101.572C222.351 101.572 234.393 112.317 234.393 128.111Z" fill="#232325"/>
<path fill-rule="evenodd" clip-rule="evenodd" d="M196.33 192.006H218.456V163.355H196.33V192.006Z" fill="#ED9F94"/>
<path fill-rule="evenodd" clip-rule="evenodd" d="M193.101 161.568C193.101 161.568 199.26 173.86 206.837 175.779C208.861 176.292 211.023 176.116 212.975 175.425C215.827 174.413 219.443 170.161 220.058 165.457L220.343 162.769C220.343 162.769 206.86 170.11 193.101 161.568Z" fill="#232325"/>
<path fill-rule="evenodd" clip-rule="evenodd" d="M230.737 129.21C230.737 138.906 229.368 147.273 228 153.211C226.661 159.025 222.894 163.088 217.569 166.359L216.6 166.954C210.966 170.415 203.688 170.495 197.968 167.161C192.199 163.798 188.16 159.363 186.917 153.125C184.656 141.778 184.409 129.21 184.409 129.21C184.409 129.21 182.258 104.733 207.243 105.209C232.228 105.684 230.737 129.21 230.737 129.21Z" fill="#ED9F94"/>
<path d="M205.828 144.504V146.516C205.828 146.716 205.867 146.908 205.937 147.084C206.215 147.774 207.014 148.104 207.736 147.913L209.29 147.503" stroke="#232325" stroke-width="1.23" stroke-linecap="round" stroke-linejoin="round"/>
<path fill-rule="evenodd" clip-rule="evenodd" d="M211.034 131.236L224.326 134.382C224.326 134.382 223.722 130.966 218.284 129.724C212.846 128.483 211.034 131.236 211.034 131.236Z" fill="#232325"/>
<path fill-rule="evenodd" clip-rule="evenodd" d="M204.055 131.236L190.591 134.382C190.591 134.382 191.203 130.966 196.711 129.724C202.219 128.483 204.055 131.236 204.055 131.236Z" fill="#232325"/>
<path fill-rule="evenodd" clip-rule="evenodd" d="M199.232 139.487C199.232 140.636 198.294 141.569 197.138 141.569C195.981 141.569 195.043 140.636 195.043 139.487C195.043 138.337 195.981 137.404 197.138 137.404C198.294 137.404 199.232 138.337 199.232 139.487Z" fill="#232325"/>
<path fill-rule="evenodd" clip-rule="evenodd" d="M219.084 139.487C219.084 140.636 218.146 141.569 216.99 141.569C215.833 141.569 214.896 140.636 214.896 139.487C214.896 138.337 215.833 137.404 216.99 137.404C218.146 137.404 219.084 138.337 219.084 139.487Z" fill="#232325"/>
<path fill-rule="evenodd" clip-rule="evenodd" d="M197.849 151.395H216.228C216.228 151.395 214.931 156.445 206.597 156.445C200.25 156.445 197.849 151.395 197.849 151.395Z" fill="#FFFFFE"/>
<path fill-rule="evenodd" clip-rule="evenodd" d="M184.73 137.325C184.73 137.325 194.72 123.82 192.416 110.139C192.416 110.139 185.001 113.87 183.07 123.501C181.14 133.131 184.73 137.325 184.73 137.325Z" fill="#232325"/>
<path fill-rule="evenodd" clip-rule="evenodd" d="M230.754 136.875C230.754 136.875 219.15 122.902 221.455 109.221C221.455 109.221 229.503 113.87 231.434 123.501C233.365 133.131 230.754 136.875 230.754 136.875Z" fill="#232325"/>
<path fill-rule="evenodd" clip-rule="evenodd" d="M185.568 115.528C185.568 115.528 197.031 130.934 232.124 128.53C232.124 128.53 228.115 106.56 211.107 104.366C211.107 104.366 191.47 102.021 185.568 115.528Z" fill="#232325"/>
<path fill-rule="evenodd" clip-rule="evenodd" d="M153.579 355.009C153.068 355.811 182.787 225.704 173.964 227.671C173.159 227.849 157.706 229.285 155.409 233.955C148.752 247.491 143.977 354.021 143.977 354.021L153.579 355.009Z" fill="#ED9F94"/>
<path fill-rule="evenodd" clip-rule="evenodd" d="M143.977 354.021C143.977 354.021 139.187 376.247 157.295 378.676C158.488 378.837 159.641 378.132 160.034 376.994L160.086 376.843C160.519 375.588 159.89 374.241 158.677 373.699C155.725 372.379 151.146 369.044 153.417 361.469C153.417 361.469 156.035 361.148 157.479 366.031C157.851 367.287 159.261 367.918 160.431 367.329C161.229 366.926 161.679 366.067 161.566 365.18C161.132 361.76 159.412 353.529 152.812 351.32L143.977 354.021Z" fill="#ED9F94"/>
<path fill-rule="evenodd" clip-rule="evenodd" d="M150.07 265.217C150.07 265.217 167.193 289.331 167.284 288.864C167.374 288.398 173.271 255.008 173.271 255.008L152.494 246.008L150.07 265.217Z" fill="#E0857D"/>
<path fill-rule="evenodd" clip-rule="evenodd" d="M197.647 187.289C198.377 187.285 155.329 188.056 147.461 242.413L172.201 246.204L177.189 287.24H246.206L259.907 211.42C259.907 211.42 250.167 194.993 221.775 186.945L197.647 187.289Z" fill="#1A7B6E"/>
<mask id="mask2_1_17" style="mask-type:luminance" maskUnits="userSpaceOnUse" x="176" y="182" width="238" height="217">
<path fill-rule="evenodd" clip-rule="evenodd" d="M176.606 182.672H413.091V398.797H176.606V182.672Z" fill="white"/>
</mask>
<g mask="url(#mask2_1_17)">
<path fill-rule="evenodd" clip-rule="evenodd" d="M176.606 193.86C176.606 193.86 182.689 201.936 207.616 201.936C232.312 201.936 238.627 193.437 238.627 193.437C238.627 193.437 224.069 185.303 207.176 182.672C207.176 182.672 192.091 185.359 176.606 193.86Z" fill="#ED9F94"/>
<path fill-rule="evenodd" clip-rule="evenodd" d="M261.304 366.063L261.363 474.468H314.992L319.113 366.063H261.304Z" fill="#2D4F6F"/>
<path fill-rule="evenodd" clip-rule="evenodd" d="M377.745 366.063L377.687 474.468H324.058L319.936 366.063H377.745Z" fill="#2D4F6F"/>
<path fill-rule="evenodd" clip-rule="evenodd" d="M293.006 398.797H348.456V366.063H293.006V398.797Z" fill="#2D4F6F"/>
<path fill-rule="evenodd" clip-rule="evenodd" d="M411.625 271.459C414.95 308.193 411.442 334.958 412.412 402.55L380.404 403.891L375.635 277.369L411.625 271.459Z" fill="#ED9F94"/>
</g>
<path fill-rule="evenodd" clip-rule="evenodd" d="M379.582 300.124C379.582 300.124 399.404 298.309 412.956 289.37L412.599 281.503L379.571 286.002L379.582 300.124Z" fill="#E0857D"/>
<path fill-rule="evenodd" clip-rule="evenodd" d="M347.783 186.884C347.783 186.884 410.743 202.717 422.15 282.632C422.15 282.632 391.336 295.991 360.456 290.245L367.403 263.516L347.783 186.884Z" fill="#6483C9"/>
<path fill-rule="evenodd" clip-rule="evenodd" d="M159.723 220.113L206.601 275.474L192.256 315.873C192.256 315.873 156.626 266.336 140.616 228.047L159.723 220.113Z" fill="#ED9F94"/>
<path fill-rule="evenodd" clip-rule="evenodd" d="M161.264 222.111C161.264 222.111 144.803 231.411 140.616 228.047C133.299 222.168 127.252 200.648 127.252 200.648C127.252 200.648 158.035 189.043 157.746 189.496C157.456 189.95 161.264 222.111 161.264 222.111Z" fill="#ED9F94"/>
<path fill-rule="evenodd" clip-rule="evenodd" d="M161.264 222.111C160.973 220.454 167.368 202.576 169.561 195.872C170.089 194.255 168.975 192.482 167.219 192.146C166.077 191.927 164.267 192.068 163.412 193.707L155.69 206.903L161.264 222.111Z" fill="#ED9F94"/>
<path fill-rule="evenodd" clip-rule="evenodd" d="M160.7 202.784L155.399 176.411C155.084 174.656 153.321 173.447 151.562 173.779C150.039 174.067 149.035 175.424 149.214 176.95L151.525 196.588L160.7 202.784Z" fill="#ED9F94"/>
<path fill-rule="evenodd" clip-rule="evenodd" d="M150.158 193.057L142.959 174.224C142.364 172.575 140.508 171.661 138.87 172.21C137.449 172.686 136.651 174.118 136.988 175.588L142.33 197.35L150.158 193.057Z" fill="#ED9F94"/>
<path fill-rule="evenodd" clip-rule="evenodd" d="M142.422 198.61L133.314 180.105C132.478 178.387 130.398 177.59 128.691 178.333C127.087 179.03 126.377 180.847 127.064 182.498L134.325 199.968L142.422 198.61Z" fill="#ED9F94"/>
<path fill-rule="evenodd" clip-rule="evenodd" d="M127.252 200.648L120.105 189.311C119.514 187.978 120.06 186.482 121.355 185.891C122.594 185.325 124.125 185.77 124.926 186.93L134.325 199.968L127.252 200.648Z" fill="#ED9F94"/>
<path d="M159.259 200.803C159.259 200.803 148.526 199.677 147.424 213.981" stroke="#232325" stroke-width="1.532" stroke-linecap="round" stroke-linejoin="round"/>
<path fill-rule="evenodd" clip-rule="evenodd" d="M182.749 296.977C182.749 296.977 191.565 327.491 209.135 323.434C226.705 319.378 254.088 281.852 254.088 281.852L247.959 217.778L198.646 278.471L182.749 296.977Z" fill="#ED9F94"/>
<path fill-rule="evenodd" clip-rule="evenodd" d="M213.941 259.619C213.941 259.619 230.59 284.731 244.792 293.587L254.088 281.852L218.227 254.111L213.941 259.619Z" fill="#E0857D"/>
<path fill-rule="evenodd" clip-rule="evenodd" d="M286.783 185.499C286.783 185.499 237.902 196.516 211.854 253.325C211.854 253.325 227.593 277.039 252.823 287.579L269.715 266.884L286.783 185.499Z" fill="#6483C9"/>
<path fill-rule="evenodd" clip-rule="evenodd" d="M286.783 185.323C267.688 195.117 255.685 208.106 255.685 208.106L259.452 374.166H379.779L379.39 208.963C379.39 208.963 364.222 194.12 347.783 186.884C333.821 180.738 300.356 178.361 286.783 185.323Z" fill="#6483C9"/>
<path d="M343.72 265.542C343.334 265.542 343.022 265.854 343.022 266.24C343.022 266.626 343.334 266.939 343.72 266.939V265.542ZM326.983 232.767V232.069C326.597 232.069 326.285 232.381 326.285 232.767H326.983ZM360.456 232.767H361.155C361.155 232.381 360.842 232.069 360.456 232.069V232.767ZM378.884 290.842C378.873 291.228 379.176 291.549 379.562 291.56C379.948 291.571 380.269 291.268 380.28 290.882L378.884 290.842ZM381.842 236.559C381.853 236.174 381.55 235.852 381.164 235.841C380.778 235.83 380.457 236.133 380.446 236.519L381.842 236.559ZM256.837 281.847C256.858 282.232 257.187 282.527 257.573 282.506C257.958 282.484 258.253 282.155 258.231 281.77L256.837 281.847ZM255.631 234.681C255.61 234.295 255.281 234 254.895 234.022C254.51 234.043 254.215 234.372 254.237 234.758L255.631 234.681ZM343.72 265.542C334.863 265.542 327.682 258.361 327.682 249.504H326.285C326.285 259.133 334.091 266.939 343.72 266.939V265.542ZM327.682 249.504V232.767H326.285V249.504H327.682ZM326.983 233.466H360.456V232.069H326.983V233.466ZM359.758 232.767V249.504H361.155V232.767H359.758ZM359.758 249.504C359.758 258.361 352.577 265.542 343.72 265.542V266.939C353.349 266.939 361.155 259.133 361.155 249.504H359.758ZM380.28 290.882L381.842 236.559L380.446 236.519L378.884 290.842L380.28 290.882ZM380.446 236.519L378.884 290.842L380.28 290.882L381.842 236.559L380.446 236.519ZM258.231 281.77L255.631 234.681L254.237 234.758L256.837 281.847L258.231 281.77ZM254.237 234.758L256.837 281.847L258.231 281.77L255.631 234.681L254.237 234.758Z" fill="#232325"/>
<path fill-rule="evenodd" clip-rule="evenodd" d="M288.192 124.67L283.177 99.8549C282.895 97.8339 282.11 94.7149 283.071 91.7839C284.659 86.9349 290.498 77.6229 300.478 81.8859L302.635 91.7109C302.635 91.7109 292.271 93.8029 288.114 107.361L288.192 124.67Z" fill="#232325"/>
<path fill-rule="evenodd" clip-rule="evenodd" d="M299.743 87.0081C299.562 90.2691 296.684 104.535 286.566 109.733C286.566 109.733 277.704 90.7271 299.743 87.0081Z" fill="#232325"/>
<path fill-rule="evenodd" clip-rule="evenodd" d="M335.236 180.754V138.617H296.392V180.754L284.829 186.025C284.829 186.025 287.541 203.489 316.222 203.876C344.902 204.263 347.783 186.884 347.783 186.884L335.236 180.754Z" fill="#ED9F94"/>
<path fill-rule="evenodd" clip-rule="evenodd" d="M300.478 81.8861C300.478 81.8861 307.607 63.0801 329.59 73.0781C342.896 79.1291 346.622 87.2431 348.207 92.9911C348.734 94.9021 348.944 97.9101 348.801 99.6961L343.483 124.67L322.724 90.1181L302.635 91.7111L300.478 81.8861Z" fill="#232325"/>
<path fill-rule="evenodd" clip-rule="evenodd" d="M343.483 124.67C343.483 124.67 346.103 120.505 351.504 122.553C356.905 124.602 354.462 137.719 346.359 139.391C346.359 139.391 343.455 140.025 341.178 138.036C341.178 138.036 343.17 128.347 343.483 124.67Z" fill="#E0857D"/>
<path d="M350.433 127.181C350.433 127.181 345.908 125.671 342.696 132.334" stroke="#232325" stroke-width="1.397" stroke-linecap="round" stroke-linejoin="round"/>
<path fill-rule="evenodd" clip-rule="evenodd" d="M288.192 124.67C288.192 124.67 285.574 120.505 280.172 122.553C274.771 124.602 277.214 137.719 285.316 139.391C285.316 139.391 288.221 140.025 290.498 138.036C290.498 138.036 288.506 128.347 288.192 124.67Z" fill="#E0857D"/>
<path d="M281.244 127.181C281.244 127.181 285.768 125.671 288.979 132.334" stroke="#232325" stroke-width="1.397" stroke-linecap="round" stroke-linejoin="round"/>
<path fill-rule="evenodd" clip-rule="evenodd" d="M344.024 112.222C344.027 120.13 343.251 136.675 338.39 146.494C333.825 155.714 326.275 160.675 316.378 160.971C306.48 161.266 299.107 157.452 293.198 145.486C287.289 133.52 287.572 112.369 287.572 112.369C287.572 112.369 287.572 84.1201 315.491 84.1201C344.897 84.1201 344.024 112.222 344.024 112.222Z" fill="#ED9F94"/>
<path fill-rule="evenodd" clip-rule="evenodd" d="M296.684 151.383C296.684 151.383 299.937 167.889 314.301 169.785C330.833 171.967 335.236 151.803 335.236 151.803C335.236 151.803 327.931 160.957 316.378 160.971C303.493 160.987 296.684 151.383 296.684 151.383Z" fill="#232325"/>
<path d="M313.807 123.95V130.488C313.807 130.769 313.861 131.038 313.959 131.284C314.347 132.253 315.461 132.717 316.469 132.449L318.636 131.872" stroke="#232325" stroke-width="1.397" stroke-linecap="round" stroke-linejoin="round"/>
<path fill-rule="evenodd" clip-rule="evenodd" d="M305.561 120.828C305.561 122.232 304.423 123.37 303.02 123.37C301.616 123.37 300.478 122.232 300.478 120.828C300.478 119.425 301.616 118.286 303.02 118.286C304.423 118.286 305.561 119.425 305.561 120.828Z" fill="#232325"/>
<path fill-rule="evenodd" clip-rule="evenodd" d="M329.392 120.828C329.392 122.232 328.253 123.37 326.85 123.37C325.446 123.37 324.308 122.232 324.308 120.828C324.308 119.425 325.446 118.286 326.85 118.286C328.253 118.286 329.392 119.425 329.392 120.828Z" fill="#232325"/>
<path fill-rule="evenodd" clip-rule="evenodd" d="M320.344 108.183L337.433 112.598C337.433 112.598 336.656 107.804 329.665 106.063C322.674 104.321 320.344 108.183 320.344 108.183Z" fill="#232325"/>
<path fill-rule="evenodd" clip-rule="evenodd" d="M309.725 108.183L292.636 112.598C292.636 112.598 293.413 107.804 300.403 106.063C307.395 104.321 309.725 108.183 309.725 108.183Z" fill="#232325"/>
<path d="M306.326 137.075C306.326 137.075 308.847 139.007 315.476 139.007C321.505 139.007 325.271 137.075 325.271 137.075" stroke="#232325" stroke-width="1.397" stroke-linecap="round" stroke-linejoin="round"/>
<path d="M313.136 121.57L312.47 120.857L310.661 122.546H313.136V121.57ZM318.067 121.57V122.546H320.412L318.759 120.882L318.067 121.57ZM312.161 121.57C312.161 126.996 307.761 131.396 302.335 131.396V133.347C308.839 133.347 314.112 128.074 314.112 121.57H312.161ZM302.335 131.396C296.91 131.396 292.511 126.996 292.511 121.57H290.56C290.56 128.074 295.832 133.347 302.335 133.347V131.396ZM292.511 121.57C292.511 116.145 296.91 111.746 302.335 111.746V109.795C295.832 109.795 290.56 115.067 290.56 121.57H292.511ZM302.335 111.746C307.761 111.746 312.161 116.145 312.161 121.57H314.112C314.112 115.067 308.839 109.795 302.335 109.795V111.746ZM338.693 121.57C338.693 126.996 334.294 131.396 328.868 131.396V133.347C335.372 133.347 340.644 128.074 340.644 121.57H338.693ZM328.868 131.396C323.442 131.396 319.043 126.996 319.043 121.57H317.092C317.092 128.074 322.364 133.347 328.868 133.347V131.396ZM319.043 121.57C319.043 116.145 323.442 111.746 328.868 111.746V109.795C322.364 109.795 317.092 115.067 317.092 121.57H319.043ZM328.868 111.746C334.294 111.746 338.693 116.145 338.693 121.57H340.644C340.644 115.067 335.372 109.795 328.868 109.795V111.746ZM313.136 121.57C313.802 122.283 313.801 122.284 313.801 122.284C313.801 122.284 313.8 122.284 313.8 122.284C313.8 122.285 313.8 122.285 313.799 122.285C313.799 122.286 313.798 122.286 313.798 122.287C313.797 122.287 313.797 122.287 313.798 122.287C313.799 122.286 313.802 122.283 313.808 122.278C313.819 122.268 313.838 122.252 313.866 122.229C313.921 122.184 314.007 122.118 314.118 122.043C314.343 121.891 314.653 121.717 315.008 121.604C315.36 121.492 315.733 121.447 316.109 121.52C316.475 121.592 316.908 121.788 317.375 122.258L318.759 120.882C318.04 120.159 317.263 119.758 316.482 119.606C315.711 119.455 315 119.559 314.415 119.745C313.834 119.931 313.356 120.204 313.028 120.425C312.862 120.537 312.729 120.639 312.635 120.715C312.588 120.753 312.551 120.785 312.523 120.81C312.509 120.822 312.498 120.832 312.489 120.84C312.485 120.844 312.481 120.847 312.478 120.85C312.476 120.851 312.475 120.853 312.474 120.854C312.473 120.854 312.472 120.855 312.472 120.855C312.472 120.856 312.471 120.856 312.471 120.856C312.471 120.856 312.47 120.857 313.136 121.57ZM318.067 120.595H313.136V122.546H318.067V120.595ZM291.56 120.595L287.939 120.504L287.889 122.454L291.51 122.545L291.56 120.595ZM287.889 122.454L291.51 122.545L291.56 120.595L287.939 120.504L287.889 122.454ZM339.684 122.545L343.727 122.48L343.695 120.53L339.652 120.595L339.684 122.545ZM343.695 120.53L339.652 120.595L339.684 122.545L343.727 122.48L343.695 120.53Z" fill="#FFFFFE"/>
<path fill-rule="evenodd" clip-rule="evenodd" d="M296.684 87.6541C296.684 87.6541 301.871 102.389 325.274 101.937C341.178 101.63 344.978 113.138 344.978 113.138C344.978 113.138 342.21 87.4111 341.482 87.6541C340.755 87.8961 317.283 81.3911 317.283 81.3911L296.684 87.6541Z" fill="#232325"/>
<defs>
<linearGradient id="paint0_linear_1_17" x1="377.223" y1="184.417" x2="377.223" y2="290.03" gradientUnits="userSpaceOnUse">
<stop stop-color="#FB930F"/>
<stop offset="1" stop-color="#F77819"/>
</linearGradient>
</defs>
</svg>
